# xmcd
#
# Track frame offsets:
#	150
#	11745
#	23403
#	35605
#	46501
#	58229
#	67818
#	83427
#	97526
#	109797
#	121269
#	134700
#	145255
#	159887
#	175831
#	188370
#	200102
#	211695
#	221086
#	231529
#	245982
#	257181
#	271270
#	285451
#	301497
#
# Disc length: 4226 seconds
#
# Revision: 1
# Processed by: cddbd v1.5.2PL0 Copyright (c) Steve Scherf et al.
# Submitted via: audiograbber 1.83.01
#
DISCID=5b108019
DTITLE=Dennis Brew - Bouquet of Roses - Vol. 2:  Help Me Make it Through the Ni
DTITLE=ght
DYEAR=2013
DGENRE=Country
TTITLE0=Bouquet Of Roses
TTITLE1=Help Me Make It Through The Night
TTITLE2=Jealous Heart
TTITLE3=King Of The Road
TTITLE4=Let it Be Me
TTITLE5=Make The World Go Away
TTITLE6=Me And Bobby McGee
TTITLE7=The Grand Tour
TTITLE8=Okie From Muskogee
TTITLE9=Put Your Head On My Shoulder
TTITLE10=Hey Good Lookin'
TTITLE11=On The Road Again
TTITLE12=Silver Wings
TTITLE13=Song Sung Blue
TTITLE14=Dream Baby (How Long Must I Dream?)
TTITLE15=Young Love
TTITLE16=All I Have To Do Is Dream
TTITLE17=Don't Be Cruel
TTITLE18=Blueberry Hill
TTITLE19=Country Roads
TTITLE20=Easy Lovin'
TTITLE21=All I Have To Offer You Is Me
TTITLE22=Green Green Grass Of Home
TTITLE23=I Washed My Hands In Muddy Water
TTITLE24=Precious Lord Take My Hand
EXTD=Dennis Brew (1948-2013]\nRecorded at his home
EXTT0=
EXTT1=
EXTT2=
EXTT3=
EXTT4=
EXTT5=
EXTT6=
EXTT7=
EXTT8=
EXTT9=
EXTT10=
EXTT11=
EXTT12=
EXTT13=
EXTT14=
EXTT15=
EXTT16=
EXTT17=
EXTT18=
EXTT19=
EXTT20=
EXTT21=
EXTT22=
EXTT23=
EXTT24=
PLAYORDER=
